<svg xmlns="http://www.w3.org/2000/svg" version="1.1" xmlns:xlink="http://www.w3.org/1999/xlink" width="1000" height="1000"><g clip-path="url(#SvgjsClipPath1106)"><rect width="1000" height="1000" fill="#000000"></rect><g transform="matrix(3.5353535353535355,0,0,3.5353535353535355,150,367.4242424242424)"><svg xmlns="http://www.w3.org/2000/svg" version="1.1" xmlns:xlink="http://www.w3.org/1999/xlink" width="198" height="75"><svg width="198" height="75" viewBox="0 0 198 75" fill="none" xmlns="http://www.w3.org/2000/svg">
<path d="M197.637 0.00812039V0.0771457C174.832 1.90598 85.215 12.8362 23.0631 74.2734H0L2.57783 71.7479C15.5852 59.3907 73.1186 7.01662 197.629 0L197.637 0.00812039ZM88.7916 74.2655H65.957L45.6742 59.7291H45.6826C49.4195 56.8544 53.3799 53.9704 57.2096 51.3851L88.7916 74.2655ZM40.7353 38.8179C36.6146 41.2149 32.1227 43.979 28.2593 46.5286L1.48543 27.2578H24.2905L40.7353 38.8179ZM40.7479 38.826L40.7353 38.8179L40.7479 38.8138V38.826Z" fill="white"></path>
</svg></svg></g></g><defs><clipPath id="SvgjsClipPath1106"><rect width="1000" height="1000" x="0" y="0" rx="350" ry="350"></rect></clipPath></defs></svg>