<svg width="102" height="13" viewBox="0 0 102 13" fill="none" xmlns="http://www.w3.org/2000/svg">
<g clip-path="url(#clip0_56_3970)">
<path d="M23.2139 4.85838C24.9396 4.85838 26.0219 5.57221 26.0219 6.84018V7.68944C26.0219 9.0372 25.0901 9.62644 23.363 9.62644H17.175V12.5938H14.8034V4.85838H23.2139ZM101.865 0.372918V0.384277C98.1127 0.685225 83.3692 2.48386 73.1443 12.5938H69.35L69.7741 12.1782C71.914 10.1447 81.3792 1.52622 101.863 0.371582L101.865 0.372918ZM39.0233 12.5925H36.1963L34.9435 10.8987H27.6279L28.8842 9.57902H33.967L31.5222 6.27624L32.9655 4.52963L39.0233 12.5925ZM50.0868 4.85703C51.3528 4.85705 52.2503 5.2881 52.4808 6.20608H43.581V11.1392H52.4808C52.2276 12.1608 51.6858 12.5924 50.1552 12.5925H43.4217C42.2596 12.5925 41.1654 12.1276 41.1653 10.8933V6.5562C41.1653 5.32187 42.2596 4.85707 43.4217 4.85703H50.0868ZM62.95 8.78123H58.1639V11.1392H66.3685V12.5925H55.7516V7.45626H62.95V8.78123ZM83.9577 12.5925H80.201L76.8641 10.2004H76.8655C77.4803 9.72736 78.1319 9.25279 78.7619 8.82735L83.9577 12.5925ZM8.97524 4.85703C10.2867 4.85705 11.0351 5.49237 11.2655 6.20608H2.49382V7.87185H9.29636V7.87048C10.6663 7.94746 11.4958 8.52514 11.496 9.61241V10.8472C11.4958 12.0479 10.7718 12.5905 9.32079 12.5905H2.37999C1.057 12.5905 0.297202 12.1036 0.078125 11.1379H9.35673V9.36925H2.45994C1.18245 9.37622 0.318678 8.79779 0.318678 7.77893V6.5562C0.318678 5.389 1.15811 4.85703 2.62054 4.85703H8.97524ZM17.175 8.2106H22.928C23.8597 8.2106 23.9633 7.90353 23.9633 7.34932V7.04601C23.9633 6.50157 23.8256 6.20743 22.8127 6.20742H17.1892L17.175 8.2106ZM76.0516 6.75933C75.3737 7.15377 74.6347 7.60864 73.9991 8.02819L69.5944 4.85703H73.3462L76.0516 6.75933ZM76.0537 6.76067L76.0516 6.75933L76.0537 6.75866V6.76067ZM66.481 6.20608H55.7516V4.85703H66.481V6.20608Z" fill="white"/>
</g>
<defs>
<clipPath id="clip0_56_3970">
<rect width="102" height="13" fill="white"/>
</clipPath>
</defs>
</svg>
