<!-- <svg width="255" height="100" viewBox="0 0 255 100" fill="none" xmlns="http://www.w3.org/2000/svg">
<g filter="url(#filter0_i_61_4050)">
<path d="M44.8223 39.2358H37.7861V16.3013L25.4058 38.0811C25.1014 38.6361 24.6717 39.0568 24.1167 39.3433C23.5796 39.6297 22.9977 39.7729 22.3711 39.7729C21.7624 39.7729 21.1895 39.6297 20.6523 39.3433C20.1331 39.0568 19.7214 38.6361 19.417 38.0811L6.98291 16.3013V39.2358H0.000488281V3.70605C0.000488281 2.90039 0.233236 2.18424 0.69873 1.55762C1.18213 0.93099 1.80876 0.510254 2.57861 0.29541C2.95459 0.205892 3.33057 0.179036 3.70654 0.214844C4.08252 0.232747 4.44059 0.313314 4.78076 0.456543C5.13883 0.581868 5.4611 0.769857 5.74756 1.02051C6.03402 1.25326 6.27572 1.53971 6.47266 1.87988L22.3711 29.5142L38.2695 1.87988C38.6813 1.19954 39.2453 0.716146 39.9614 0.429688C40.6955 0.143229 41.4564 0.0984701 42.2441 0.29541C42.9961 0.510254 43.6138 0.93099 44.0972 1.55762C44.5806 2.18424 44.8223 2.90039 44.8223 3.70605V39.2358ZM59.9956 39.2358H53.0132V0.725098H59.9956V39.2358ZM105.167 27.9028C105.167 29.2814 104.987 30.5257 104.629 31.6357C104.289 32.7279 103.833 33.6947 103.26 34.5361C102.687 35.3776 102.015 36.0938 101.246 36.6846C100.476 37.2754 99.679 37.7588 98.8555 38.1348C98.0319 38.5107 97.1904 38.7882 96.3311 38.9673C95.4896 39.1463 94.6929 39.2358 93.9409 39.2358H67.0049V32.2534H93.9409C95.2837 32.2534 96.3221 31.8595 97.0562 31.0718C97.8081 30.284 98.1841 29.2277 98.1841 27.9028C98.1841 27.2583 98.0856 26.6675 97.8887 26.1304C97.6917 25.5933 97.4053 25.1278 97.0293 24.7339C96.6712 24.34 96.2236 24.0356 95.6865 23.8208C95.1673 23.606 94.5854 23.4985 93.9409 23.4985H77.8813C76.7534 23.4985 75.536 23.3016 74.229 22.9077C72.922 22.4959 71.7046 21.8424 70.5767 20.9473C69.4666 20.0521 68.5356 18.8794 67.7837 17.4292C67.0496 15.979 66.6826 14.2065 66.6826 12.1118C66.6826 10.0171 67.0496 8.25358 67.7837 6.82129C68.5356 5.37109 69.4666 4.1984 70.5767 3.30322C71.7046 2.39014 72.922 1.73665 74.229 1.34277C75.536 0.93099 76.7534 0.725098 77.8813 0.725098H101.648V7.70752H77.8813C76.5565 7.70752 75.5181 8.11035 74.7661 8.91602C74.0321 9.72168 73.665 10.7869 73.665 12.1118C73.665 13.4546 74.0321 14.5199 74.7661 15.3076C75.5181 16.0775 76.5565 16.4624 77.8813 16.4624H93.9409H93.9946C94.7466 16.4803 95.5433 16.5877 96.3848 16.7847C97.2262 16.9637 98.0588 17.2502 98.8823 17.644C99.7238 18.0379 100.521 18.5392 101.272 19.1479C102.024 19.7388 102.687 20.4549 103.26 21.2964C103.851 22.1379 104.316 23.1047 104.656 24.1968C104.996 25.2889 105.167 26.5243 105.167 27.9028ZM147.974 27.9028C147.974 29.2814 147.795 30.5257 147.437 31.6357C147.097 32.7279 146.64 33.6947 146.067 34.5361C145.494 35.3776 144.823 36.0938 144.053 36.6846C143.283 37.2754 142.487 37.7588 141.663 38.1348C140.84 38.5107 139.998 38.7882 139.139 38.9673C138.297 39.1463 137.5 39.2358 136.749 39.2358H109.812V32.2534H136.749C138.091 32.2534 139.13 31.8595 139.864 31.0718C140.616 30.284 140.992 29.2277 140.992 27.9028C140.992 27.2583 140.893 26.6675 140.696 26.1304C140.499 25.5933 140.213 25.1278 139.837 24.7339C139.479 24.34 139.031 24.0356 138.494 23.8208C137.975 23.606 137.393 23.4985 136.749 23.4985H120.689C119.561 23.4985 118.344 23.3016 117.037 22.9077C115.73 22.4959 114.512 21.8424 113.384 20.9473C112.274 20.0521 111.343 18.8794 110.591 17.4292C109.857 15.979 109.49 14.2065 109.49 12.1118C109.49 10.0171 109.857 8.25358 110.591 6.82129C111.343 5.37109 112.274 4.1984 113.384 3.30322C114.512 2.39014 115.73 1.73665 117.037 1.34277C118.344 0.93099 119.561 0.725098 120.689 0.725098H144.456V7.70752H120.689C119.364 7.70752 118.326 8.11035 117.574 8.91602C116.84 9.72168 116.473 10.7869 116.473 12.1118C116.473 13.4546 116.84 14.5199 117.574 15.3076C118.326 16.0775 119.364 16.4624 120.689 16.4624H136.749H136.802C137.554 16.4803 138.351 16.5877 139.192 16.7847C140.034 16.9637 140.866 17.2502 141.69 17.644C142.531 18.0379 143.328 18.5392 144.08 19.1479C144.832 19.7388 145.494 20.4549 146.067 21.2964C146.658 22.1379 147.124 23.1047 147.464 24.1968C147.804 25.2889 147.974 26.5243 147.974 27.9028ZM160.811 39.2358H153.829V0.725098H160.811V39.2358ZM209.393 23.6597C209.393 26.005 208.99 28.1624 208.184 30.1318C207.378 32.1012 206.259 33.8021 204.827 35.2344C203.395 36.6667 201.694 37.7856 199.725 38.5913C197.773 39.3791 195.643 39.7729 193.333 39.7729H183.88C181.57 39.7729 179.431 39.3791 177.461 38.5913C175.492 37.7856 173.791 36.6667 172.359 35.2344C170.927 33.8021 169.799 32.1012 168.975 30.1318C168.169 28.1624 167.767 26.005 167.767 23.6597V16.3013C167.767 13.9738 168.169 11.8254 168.975 9.85596C169.799 7.86865 170.927 6.16781 172.359 4.75342C173.791 3.32113 175.492 2.20215 177.461 1.39648C179.431 0.59082 181.57 0.187988 183.88 0.187988H193.333C195.643 0.187988 197.773 0.59082 199.725 1.39648C201.694 2.20215 203.395 3.32113 204.827 4.75342C206.259 6.16781 207.378 7.86865 208.184 9.85596C208.99 11.8254 209.393 13.9738 209.393 16.3013V23.6597ZM202.41 16.3013C202.41 14.9227 202.186 13.6784 201.739 12.5684C201.309 11.4404 200.691 10.4826 199.886 9.69482C199.098 8.88916 198.14 8.27148 197.012 7.8418C195.902 7.39421 194.676 7.17041 193.333 7.17041H183.88C182.519 7.17041 181.275 7.39421 180.147 7.8418C179.037 8.27148 178.079 8.88916 177.273 9.69482C176.468 10.4826 175.841 11.4404 175.394 12.5684C174.964 13.6784 174.749 14.9227 174.749 16.3013V23.6597C174.749 25.0382 174.964 26.2915 175.394 27.4194C175.841 28.5295 176.468 29.4873 177.273 30.293C178.079 31.0807 179.037 31.6984 180.147 32.146C181.275 32.5757 182.519 32.7905 183.88 32.7905H193.279C194.64 32.7905 195.875 32.5757 196.985 32.146C198.113 31.6984 199.08 31.0807 199.886 30.293C200.691 29.4873 201.309 28.5295 201.739 27.4194C202.186 26.2915 202.41 25.0382 202.41 23.6597V16.3013ZM254.778 36.2549C254.778 36.7562 254.68 37.2217 254.483 37.6514C254.304 38.0811 254.053 38.457 253.731 38.7793C253.427 39.0837 253.06 39.3254 252.63 39.5044C252.2 39.6834 251.744 39.7729 251.26 39.7729C250.831 39.7729 250.392 39.6924 249.944 39.5312C249.515 39.3701 249.13 39.1105 248.79 38.7524L223.277 12.1118V39.2358H216.294V3.70605C216.294 2.98991 216.491 2.34538 216.885 1.77246C217.297 1.18164 217.816 0.743001 218.443 0.456543C219.105 0.187988 219.786 0.125326 220.484 0.268555C221.182 0.39388 221.782 0.716146 222.283 1.23535L247.796 27.8491V0.725098H254.778V36.2549ZM91.6313 99.2358H84.5952V76.3013L72.2148 98.0811C71.9105 98.6361 71.4808 99.0568 70.9258 99.3433C70.3887 99.6297 69.8068 99.7729 69.1802 99.7729C68.5715 99.7729 67.9985 99.6297 67.4614 99.3433C66.9422 99.0568 66.5304 98.6361 66.2261 98.0811L53.792 76.3013V99.2358H46.8096V63.7061C46.8096 62.9004 47.0423 62.1842 47.5078 61.5576C47.9912 60.931 48.6178 60.5103 49.3877 60.2954C49.7637 60.2059 50.1396 60.179 50.5156 60.2148C50.8916 60.2327 51.2497 60.3133 51.5898 60.4565C51.9479 60.5819 52.2702 60.7699 52.5566 61.0205C52.8431 61.2533 53.0848 61.5397 53.2817 61.8799L69.1802 89.5142L85.0786 61.8799C85.4904 61.1995 86.0544 60.7161 86.7705 60.4297C87.5046 60.1432 88.2655 60.0985 89.0532 60.2954C89.8052 60.5103 90.4229 60.931 90.9062 61.5576C91.3896 62.1842 91.6313 62.9004 91.6313 63.7061V99.2358ZM137.554 99.2358H130.572V89.7827H106.026V99.2358H99.0435V79.9805C99.0435 77.1696 99.5269 74.5825 100.494 72.2192C101.46 69.856 102.803 67.8239 104.522 66.123C106.241 64.4222 108.273 63.0973 110.618 62.1484C112.964 61.1995 115.524 60.7251 118.299 60.7251H134.036C134.52 60.7251 134.976 60.8146 135.406 60.9937C135.835 61.1727 136.211 61.4233 136.534 61.7456C136.856 62.0679 137.107 62.4438 137.286 62.8735C137.465 63.3032 137.554 63.7598 137.554 64.2432V99.2358ZM106.026 82.8003H130.572V67.7075H118.299C118.084 67.7075 117.627 67.7433 116.929 67.8149C116.249 67.8687 115.452 68.0208 114.539 68.2715C113.644 68.5221 112.695 68.9071 111.692 69.4263C110.69 69.9455 109.768 70.6616 108.926 71.5747C108.085 72.4878 107.387 73.6336 106.832 75.0122C106.294 76.3729 106.026 78.029 106.026 79.9805V82.8003ZM184.175 73.6694C184.175 75.2629 183.978 76.6862 183.584 77.9395C183.191 79.1927 182.653 80.3027 181.973 81.2695C181.311 82.2184 180.541 83.033 179.664 83.7134C178.786 84.3937 177.864 84.9577 176.897 85.4053C175.949 85.835 174.982 86.1483 173.997 86.3452C173.03 86.5422 172.117 86.6406 171.258 86.6406L185.84 99.2358H175.044L160.489 86.6406H155.467V79.6582H171.258C172.135 79.5866 172.932 79.4076 173.648 79.1211C174.382 78.8167 175.009 78.4139 175.528 77.9126C176.065 77.4113 176.477 76.8115 176.763 76.1133C177.05 75.3971 177.193 74.5825 177.193 73.6694V69.2651C177.193 68.8713 177.139 68.5758 177.032 68.3789C176.942 68.1641 176.817 68.0119 176.656 67.9224C176.513 67.8149 176.351 67.7523 176.172 67.7344C176.011 67.7165 175.859 67.7075 175.716 67.7075H152.674V99.2358H145.691V64.2432C145.691 63.7598 145.781 63.3032 145.96 62.8735C146.139 62.4438 146.381 62.0679 146.685 61.7456C147.007 61.4233 147.383 61.1727 147.813 60.9937C148.243 60.8146 148.708 60.7251 149.209 60.7251H175.716C177.273 60.7251 178.589 61.0116 179.664 61.5845C180.738 62.1395 181.606 62.8467 182.269 63.7061C182.949 64.5475 183.432 65.4606 183.719 66.4453C184.023 67.43 184.175 68.3521 184.175 69.2114V73.6694ZM228.191 87.9028C228.191 89.2814 228.012 90.5257 227.654 91.6357C227.314 92.7279 226.858 93.6947 226.285 94.5361C225.712 95.3776 225.04 96.0938 224.271 96.6846C223.501 97.2754 222.704 97.7588 221.88 98.1348C221.057 98.5107 220.215 98.7882 219.356 98.9673C218.514 99.1463 217.718 99.2358 216.966 99.2358H190.03V92.2534H216.966C218.309 92.2534 219.347 91.8595 220.081 91.0718C220.833 90.284 221.209 89.2277 221.209 87.9028C221.209 87.2583 221.111 86.6675 220.914 86.1304C220.717 85.5933 220.43 85.1278 220.054 84.7339C219.696 84.34 219.249 84.0356 218.711 83.8208C218.192 83.606 217.61 83.4985 216.966 83.4985H200.906C199.778 83.4985 198.561 83.3016 197.254 82.9077C195.947 82.4959 194.729 81.8424 193.602 80.9473C192.492 80.0521 191.561 78.8794 190.809 77.4292C190.075 75.979 189.708 74.2065 189.708 72.1118C189.708 70.0171 190.075 68.2536 190.809 66.8213C191.561 65.3711 192.492 64.1984 193.602 63.3032C194.729 62.3901 195.947 61.7367 197.254 61.3428C198.561 60.931 199.778 60.7251 200.906 60.7251H224.673V67.7075H200.906C199.581 67.7075 198.543 68.1104 197.791 68.916C197.057 69.7217 196.69 70.7869 196.69 72.1118C196.69 73.4546 197.057 74.5199 197.791 75.3076C198.543 76.0775 199.581 76.4624 200.906 76.4624H216.966H217.02C217.771 76.4803 218.568 76.5877 219.41 76.7847C220.251 76.9637 221.084 77.2502 221.907 77.644C222.749 78.0379 223.545 78.5392 224.297 79.1479C225.049 79.7388 225.712 80.4549 226.285 81.2964C226.875 82.1379 227.341 83.1047 227.681 84.1968C228.021 85.2889 228.191 86.5243 228.191 87.9028Z" fill="url(#paint0_linear_61_4050)"/>
</g>
<defs>
<filter id="filter0_i_61_4050" x="0" y="-1" width="254.778" height="100.773" filterUnits="userSpaceOnUse" color-interpolation-filters="sRGB">
<feFlood flood-opacity="0" result="BackgroundImageFix"/>
<feBlend mode="normal" in="SourceGraphic" in2="BackgroundImageFix" result="shape"/>
<feColorMatrix in="SourceAlpha" type="matrix" values="0 0 0 0 0 0 0 0 0 0 0 0 0 0 0 0 0 0 127 0" result="hardAlpha"/>
<feOffset dy="-1"/>
<feGaussianBlur stdDeviation="0.5"/>
<feComposite in2="hardAlpha" operator="arithmetic" k2="-1" k3="1"/>
<feColorMatrix type="matrix" values="0 0 0 0 0.4 0 0 0 0 0.741096 0 0 0 0 1 0 0 0 0.14 0"/>
<feBlend mode="normal" in2="shape" result="effect1_innerShadow_61_4050"/>
</filter>
<linearGradient id="paint0_linear_61_4050" x1="136.346" y1="-292.764" x2="136.346" y2="221.236" gradientUnits="userSpaceOnUse">
<stop stop-color="#67BDFF" stop-opacity="0.17"/>
<stop offset="1" stop-color="#999999" stop-opacity="0"/>
</linearGradient>
</defs>
</svg> -->

<svg width="255" height="100" viewBox="0 0 255 100" fill="none" xmlns="http://www.w3.org/2000/svg">
<g filter="url(#filter0_i_151_4122)">
<path d="M44.8223 39.2358H37.7861V16.3013L25.4058 38.0811C25.1014 38.6361 24.6717 39.0568 24.1167 39.3433C23.5796 39.6297 22.9977 39.7729 22.3711 39.7729C21.7624 39.7729 21.1895 39.6297 20.6523 39.3433C20.1331 39.0568 19.7214 38.6361 19.417 38.0811L6.98291 16.3013V39.2358H0.000488281V3.70605C0.000488281 2.90039 0.233236 2.18424 0.69873 1.55762C1.18213 0.93099 1.80876 0.510254 2.57861 0.29541C2.95459 0.205892 3.33057 0.179036 3.70654 0.214844C4.08252 0.232747 4.44059 0.313314 4.78076 0.456543C5.13883 0.581868 5.4611 0.769857 5.74756 1.02051C6.03402 1.25326 6.27572 1.53971 6.47266 1.87988L22.3711 29.5142L38.2695 1.87988C38.6813 1.19954 39.2453 0.716146 39.9614 0.429688C40.6955 0.143229 41.4564 0.0984701 42.2441 0.29541C42.9961 0.510254 43.6138 0.93099 44.0972 1.55762C44.5806 2.18424 44.8223 2.90039 44.8223 3.70605V39.2358ZM59.9956 39.2358H53.0132V0.725098H59.9956V39.2358ZM105.167 27.9028C105.167 29.2814 104.987 30.5257 104.629 31.6357C104.289 32.7279 103.833 33.6947 103.26 34.5361C102.687 35.3776 102.015 36.0938 101.246 36.6846C100.476 37.2754 99.679 37.7588 98.8555 38.1348C98.0319 38.5107 97.1904 38.7882 96.3311 38.9673C95.4896 39.1463 94.6929 39.2358 93.9409 39.2358H67.0049V32.2534H93.9409C95.2837 32.2534 96.3221 31.8595 97.0562 31.0718C97.8081 30.284 98.1841 29.2277 98.1841 27.9028C98.1841 27.2583 98.0856 26.6675 97.8887 26.1304C97.6917 25.5933 97.4053 25.1278 97.0293 24.7339C96.6712 24.34 96.2236 24.0356 95.6865 23.8208C95.1673 23.606 94.5854 23.4985 93.9409 23.4985H77.8813C76.7534 23.4985 75.536 23.3016 74.229 22.9077C72.922 22.4959 71.7046 21.8424 70.5767 20.9473C69.4666 20.0521 68.5356 18.8794 67.7837 17.4292C67.0496 15.979 66.6826 14.2065 66.6826 12.1118C66.6826 10.0171 67.0496 8.25358 67.7837 6.82129C68.5356 5.37109 69.4666 4.1984 70.5767 3.30322C71.7046 2.39014 72.922 1.73665 74.229 1.34277C75.536 0.93099 76.7534 0.725098 77.8813 0.725098H101.648V7.70752H77.8813C76.5565 7.70752 75.5181 8.11035 74.7661 8.91602C74.0321 9.72168 73.665 10.7869 73.665 12.1118C73.665 13.4546 74.0321 14.5199 74.7661 15.3076C75.5181 16.0775 76.5565 16.4624 77.8813 16.4624H93.9409H93.9946C94.7466 16.4803 95.5433 16.5877 96.3848 16.7847C97.2262 16.9637 98.0588 17.2502 98.8823 17.644C99.7238 18.0379 100.521 18.5392 101.272 19.1479C102.024 19.7388 102.687 20.4549 103.26 21.2964C103.851 22.1379 104.316 23.1047 104.656 24.1968C104.996 25.2889 105.167 26.5243 105.167 27.9028ZM147.974 27.9028C147.974 29.2814 147.795 30.5257 147.437 31.6357C147.097 32.7279 146.64 33.6947 146.067 34.5361C145.494 35.3776 144.823 36.0938 144.053 36.6846C143.283 37.2754 142.487 37.7588 141.663 38.1348C140.84 38.5107 139.998 38.7882 139.139 38.9673C138.297 39.1463 137.5 39.2358 136.749 39.2358H109.812V32.2534H136.749C138.091 32.2534 139.13 31.8595 139.864 31.0718C140.616 30.284 140.992 29.2277 140.992 27.9028C140.992 27.2583 140.893 26.6675 140.696 26.1304C140.499 25.5933 140.213 25.1278 139.837 24.7339C139.479 24.34 139.031 24.0356 138.494 23.8208C137.975 23.606 137.393 23.4985 136.749 23.4985H120.689C119.561 23.4985 118.344 23.3016 117.037 22.9077C115.73 22.4959 114.512 21.8424 113.384 20.9473C112.274 20.0521 111.343 18.8794 110.591 17.4292C109.857 15.979 109.49 14.2065 109.49 12.1118C109.49 10.0171 109.857 8.25358 110.591 6.82129C111.343 5.37109 112.274 4.1984 113.384 3.30322C114.512 2.39014 115.73 1.73665 117.037 1.34277C118.344 0.93099 119.561 0.725098 120.689 0.725098H144.456V7.70752H120.689C119.364 7.70752 118.326 8.11035 117.574 8.91602C116.84 9.72168 116.473 10.7869 116.473 12.1118C116.473 13.4546 116.84 14.5199 117.574 15.3076C118.326 16.0775 119.364 16.4624 120.689 16.4624H136.749H136.802C137.554 16.4803 138.351 16.5877 139.192 16.7847C140.034 16.9637 140.866 17.2502 141.69 17.644C142.531 18.0379 143.328 18.5392 144.08 19.1479C144.832 19.7388 145.494 20.4549 146.067 21.2964C146.658 22.1379 147.124 23.1047 147.464 24.1968C147.804 25.2889 147.974 26.5243 147.974 27.9028ZM160.811 39.2358H153.829V0.725098H160.811V39.2358ZM209.393 23.6597C209.393 26.005 208.99 28.1624 208.184 30.1318C207.378 32.1012 206.259 33.8021 204.827 35.2344C203.395 36.6667 201.694 37.7856 199.725 38.5913C197.773 39.3791 195.643 39.7729 193.333 39.7729H183.88C181.57 39.7729 179.431 39.3791 177.461 38.5913C175.492 37.7856 173.791 36.6667 172.359 35.2344C170.927 33.8021 169.799 32.1012 168.975 30.1318C168.169 28.1624 167.767 26.005 167.767 23.6597V16.3013C167.767 13.9738 168.169 11.8254 168.975 9.85596C169.799 7.86865 170.927 6.16781 172.359 4.75342C173.791 3.32113 175.492 2.20215 177.461 1.39648C179.431 0.59082 181.57 0.187988 183.88 0.187988H193.333C195.643 0.187988 197.773 0.59082 199.725 1.39648C201.694 2.20215 203.395 3.32113 204.827 4.75342C206.259 6.16781 207.378 7.86865 208.184 9.85596C208.99 11.8254 209.393 13.9738 209.393 16.3013V23.6597ZM202.41 16.3013C202.41 14.9227 202.186 13.6784 201.739 12.5684C201.309 11.4404 200.691 10.4826 199.886 9.69482C199.098 8.88916 198.14 8.27148 197.012 7.8418C195.902 7.39421 194.676 7.17041 193.333 7.17041H183.88C182.519 7.17041 181.275 7.39421 180.147 7.8418C179.037 8.27148 178.079 8.88916 177.273 9.69482C176.468 10.4826 175.841 11.4404 175.394 12.5684C174.964 13.6784 174.749 14.9227 174.749 16.3013V23.6597C174.749 25.0382 174.964 26.2915 175.394 27.4194C175.841 28.5295 176.468 29.4873 177.273 30.293C178.079 31.0807 179.037 31.6984 180.147 32.146C181.275 32.5757 182.519 32.7905 183.88 32.7905H193.279C194.64 32.7905 195.875 32.5757 196.985 32.146C198.113 31.6984 199.08 31.0807 199.886 30.293C200.691 29.4873 201.309 28.5295 201.739 27.4194C202.186 26.2915 202.41 25.0382 202.41 23.6597V16.3013ZM254.778 36.2549C254.778 36.7562 254.68 37.2217 254.483 37.6514C254.304 38.0811 254.053 38.457 253.731 38.7793C253.427 39.0837 253.06 39.3254 252.63 39.5044C252.2 39.6834 251.744 39.7729 251.26 39.7729C250.831 39.7729 250.392 39.6924 249.944 39.5312C249.515 39.3701 249.13 39.1105 248.79 38.7524L223.277 12.1118V39.2358H216.294V3.70605C216.294 2.98991 216.491 2.34538 216.885 1.77246C217.297 1.18164 217.816 0.743001 218.443 0.456543C219.105 0.187988 219.786 0.125326 220.484 0.268555C221.182 0.39388 221.782 0.716146 222.283 1.23535L247.796 27.8491V0.725098H254.778V36.2549ZM91.6313 99.2358H84.5952V76.3013L72.2148 98.0811C71.9105 98.6361 71.4808 99.0568 70.9258 99.3433C70.3887 99.6297 69.8068 99.7729 69.1802 99.7729C68.5715 99.7729 67.9985 99.6297 67.4614 99.3433C66.9422 99.0568 66.5304 98.6361 66.2261 98.0811L53.792 76.3013V99.2358H46.8096V63.7061C46.8096 62.9004 47.0423 62.1842 47.5078 61.5576C47.9912 60.931 48.6178 60.5103 49.3877 60.2954C49.7637 60.2059 50.1396 60.179 50.5156 60.2148C50.8916 60.2327 51.2497 60.3133 51.5898 60.4565C51.9479 60.5819 52.2702 60.7699 52.5566 61.0205C52.8431 61.2533 53.0848 61.5397 53.2817 61.8799L69.1802 89.5142L85.0786 61.8799C85.4904 61.1995 86.0544 60.7161 86.7705 60.4297C87.5046 60.1432 88.2655 60.0985 89.0532 60.2954C89.8052 60.5103 90.4229 60.931 90.9062 61.5576C91.3896 62.1842 91.6313 62.9004 91.6313 63.7061V99.2358ZM137.554 99.2358H130.572V89.7827H106.026V99.2358H99.0435V79.9805C99.0435 77.1696 99.5269 74.5825 100.494 72.2192C101.46 69.856 102.803 67.8239 104.522 66.123C106.241 64.4222 108.273 63.0973 110.618 62.1484C112.964 61.1995 115.524 60.7251 118.299 60.7251H134.036C134.52 60.7251 134.976 60.8146 135.406 60.9937C135.835 61.1727 136.211 61.4233 136.534 61.7456C136.856 62.0679 137.107 62.4438 137.286 62.8735C137.465 63.3032 137.554 63.7598 137.554 64.2432V99.2358ZM106.026 82.8003H130.572V67.7075H118.299C118.084 67.7075 117.627 67.7433 116.929 67.8149C116.249 67.8687 115.452 68.0208 114.539 68.2715C113.644 68.5221 112.695 68.9071 111.692 69.4263C110.69 69.9455 109.768 70.6616 108.926 71.5747C108.085 72.4878 107.387 73.6336 106.832 75.0122C106.294 76.3729 106.026 78.029 106.026 79.9805V82.8003ZM184.175 73.6694C184.175 75.2629 183.978 76.6862 183.584 77.9395C183.191 79.1927 182.653 80.3027 181.973 81.2695C181.311 82.2184 180.541 83.033 179.664 83.7134C178.786 84.3937 177.864 84.9577 176.897 85.4053C175.949 85.835 174.982 86.1483 173.997 86.3452C173.03 86.5422 172.117 86.6406 171.258 86.6406L185.84 99.2358H175.044L160.489 86.6406H155.467V79.6582H171.258C172.135 79.5866 172.932 79.4076 173.648 79.1211C174.382 78.8167 175.009 78.4139 175.528 77.9126C176.065 77.4113 176.477 76.8115 176.763 76.1133C177.05 75.3971 177.193 74.5825 177.193 73.6694V69.2651C177.193 68.8713 177.139 68.5758 177.032 68.3789C176.942 68.1641 176.817 68.0119 176.656 67.9224C176.513 67.8149 176.351 67.7523 176.172 67.7344C176.011 67.7165 175.859 67.7075 175.716 67.7075H152.674V99.2358H145.691V64.2432C145.691 63.7598 145.781 63.3032 145.96 62.8735C146.139 62.4438 146.381 62.0679 146.685 61.7456C147.007 61.4233 147.383 61.1727 147.813 60.9937C148.243 60.8146 148.708 60.7251 149.209 60.7251H175.716C177.273 60.7251 178.589 61.0116 179.664 61.5845C180.738 62.1395 181.606 62.8467 182.269 63.7061C182.949 64.5475 183.432 65.4606 183.719 66.4453C184.023 67.43 184.175 68.3521 184.175 69.2114V73.6694ZM228.191 87.9028C228.191 89.2814 228.012 90.5257 227.654 91.6357C227.314 92.7279 226.858 93.6947 226.285 94.5361C225.712 95.3776 225.04 96.0938 224.271 96.6846C223.501 97.2754 222.704 97.7588 221.88 98.1348C221.057 98.5107 220.215 98.7882 219.356 98.9673C218.514 99.1463 217.718 99.2358 216.966 99.2358H190.03V92.2534H216.966C218.309 92.2534 219.347 91.8595 220.081 91.0718C220.833 90.284 221.209 89.2277 221.209 87.9028C221.209 87.2583 221.111 86.6675 220.914 86.1304C220.717 85.5933 220.43 85.1278 220.054 84.7339C219.696 84.34 219.249 84.0356 218.711 83.8208C218.192 83.606 217.61 83.4985 216.966 83.4985H200.906C199.778 83.4985 198.561 83.3016 197.254 82.9077C195.947 82.4959 194.729 81.8424 193.602 80.9473C192.492 80.0521 191.561 78.8794 190.809 77.4292C190.075 75.979 189.708 74.2065 189.708 72.1118C189.708 70.0171 190.075 68.2536 190.809 66.8213C191.561 65.3711 192.492 64.1984 193.602 63.3032C194.729 62.3901 195.947 61.7367 197.254 61.3428C198.561 60.931 199.778 60.7251 200.906 60.7251H224.673V67.7075H200.906C199.581 67.7075 198.543 68.1104 197.791 68.916C197.057 69.7217 196.69 70.7869 196.69 72.1118C196.69 73.4546 197.057 74.5199 197.791 75.3076C198.543 76.0775 199.581 76.4624 200.906 76.4624H216.966H217.02C217.771 76.4803 218.568 76.5877 219.41 76.7847C220.251 76.9637 221.084 77.2502 221.907 77.644C222.749 78.0379 223.545 78.5392 224.297 79.1479C225.049 79.7388 225.712 80.4549 226.285 81.2964C226.875 82.1379 227.341 83.1047 227.681 84.1968C228.021 85.2889 228.191 86.5243 228.191 87.9028Z" fill="url(#paint0_radial_151_4122)"/>
</g>
<defs>
<filter id="filter0_i_151_4122" x="0" y="-1" width="254.778" height="100.773" filterUnits="userSpaceOnUse" color-interpolation-filters="sRGB">
<feFlood flood-opacity="0" result="BackgroundImageFix"/>
<feBlend mode="normal" in="SourceGraphic" in2="BackgroundImageFix" result="shape"/>
<feColorMatrix in="SourceAlpha" type="matrix" values="0 0 0 0 0 0 0 0 0 0 0 0 0 0 0 0 0 0 127 0" result="hardAlpha"/>
<feOffset dy="-1"/>
<feGaussianBlur stdDeviation="0.5"/>
<feComposite in2="hardAlpha" operator="arithmetic" k2="-1" k3="1"/>
<feColorMatrix type="matrix" values="0 0 0 0 0.4 0 0 0 0 0.741096 0 0 0 0 1 0 0 0 0.14 0"/>
<feBlend mode="normal" in2="shape" result="effect1_innerShadow_151_4122"/>
</filter>
<radialGradient id="paint0_radial_151_4122" cx="0" cy="0" r="1" gradientUnits="userSpaceOnUse" gradientTransform="translate(136.346 -79.2642) rotate(90) scale(267 194.078)">
<stop stop-color="#67BDFF" stop-opacity="0.11"/>
<stop offset="1" stop-color="#67BDFF" stop-opacity="0.02"/>
</radialGradient>
</defs>
</svg>
