<svg width="713" height="336" viewBox="0 0 713 336" fill="none" xmlns="http://www.w3.org/2000/svg">
<path d="M42.6794 256.221L42.8055 256.405L43.0195 256.468L42.8835 256.644L42.8896 256.867L42.6794 256.792L42.4692 256.867L42.4753 256.644L42.3393 256.468L42.5533 256.405L42.6794 256.221Z" fill="white" fill-opacity="0.4"/>
<path d="M236.833 163.003L237.051 163.321L237.421 163.429L237.186 163.734L237.197 164.119L236.833 163.99L236.47 164.119L236.481 163.734L236.246 163.429L236.616 163.321L236.833 163.003Z" fill="white" fill-opacity="0.6"/>
<path d="M221.754 226.677L221.872 226.849L222.073 226.908L221.945 227.073L221.951 227.282L221.754 227.212L221.557 227.282L221.563 227.073L221.435 226.908L221.636 226.849L221.754 226.677Z" fill="white" fill-opacity="0.3"/>
<path d="M261.039 334.157L261.336 334.589L261.84 334.738L261.52 335.153L261.534 335.678L261.039 335.502L260.545 335.678L260.559 335.153L260.239 334.738L260.743 334.589L261.039 334.157Z" fill="white" fill-opacity="0.4"/>
<path d="M643.179 208.339L643.464 208.753L643.947 208.895L643.64 209.293L643.654 209.796L643.179 209.627L642.705 209.796L642.719 209.293L642.412 208.895L642.895 208.753L643.179 208.339Z" fill="white" fill-opacity="0.4"/>
<path d="M132.927 142.628L133.21 143.04L133.689 143.181L133.384 143.577L133.398 144.076L132.927 143.908L132.456 144.076L132.47 143.577L132.165 143.181L132.644 143.04L132.927 142.628Z" fill="white" fill-opacity="0.4"/>
<path d="M305.959 279.143L306.082 279.323L306.291 279.384L306.158 279.556L306.164 279.774L305.959 279.701L305.753 279.774L305.759 279.556L305.626 279.384L305.835 279.323L305.959 279.143Z" fill="white" fill-opacity="0.4"/>
<path d="M56.505 282.2L56.6484 282.408L56.8917 282.48L56.737 282.681L56.744 282.934L56.505 282.849L56.2661 282.934L56.273 282.681L56.1184 282.48L56.3617 282.408L56.505 282.2Z" fill="white" fill-opacity="0.4"/>
<path d="M259.201 33.6194L259.39 33.894L259.71 33.9882L259.506 34.252L259.515 34.5848L259.201 34.4732L258.887 34.5848L258.896 34.252L258.693 33.9882L259.013 33.894L259.201 33.6194Z" fill="white" fill-opacity="0.3"/>
<path d="M7.46286 62.6544L7.58563 62.8333L7.79394 62.8946L7.66151 63.0664L7.66748 63.2831L7.46286 63.2105L7.25824 63.2831L7.26421 63.0664L7.13178 62.8946L7.34009 62.8333L7.46286 62.6544Z" fill="white" fill-opacity="0.5"/>
<path d="M19.4073 27.5068L19.6036 27.7929L19.9368 27.8909L19.725 28.1658L19.7346 28.5124L19.4073 28.3962L19.08 28.5124L19.0895 28.1658L18.8777 27.8909L19.2109 27.7929L19.4073 27.5068Z" fill="white" fill-opacity="0.6"/>
<path d="M326.841 35.657L327.13 36.0789L327.622 36.2236L327.309 36.629L327.323 37.1403L326.841 36.9689L326.358 37.1403L326.372 36.629L326.06 36.2236L326.551 36.0789L326.841 35.657Z" fill="white" fill-opacity="0.4"/>
<path d="M607.343 320.403L607.586 320.757L607.998 320.878L607.736 321.218L607.748 321.646L607.343 321.502L606.939 321.646L606.951 321.218L606.689 320.878L607.101 320.757L607.343 320.403Z" fill="white" fill-opacity="0.6"/>
<path d="M548.472 156.891L548.827 157.407L549.429 157.585L549.047 158.081L549.064 158.707L548.472 158.497L547.881 158.707L547.898 158.081L547.516 157.585L548.118 157.407L548.472 156.891Z" fill="white" fill-opacity="0.4"/>
<path d="M132.229 91.18L132.446 91.4955L132.813 91.6037L132.58 91.9069L132.59 92.2892L132.229 92.1611L131.868 92.2892L131.879 91.9069L131.645 91.6037L132.013 91.4955L132.229 91.18Z" fill="white" fill-opacity="0.3"/>
<path d="M246.413 327.025L246.59 327.284L246.891 327.372L246.7 327.62L246.709 327.933L246.413 327.828L246.118 327.933L246.126 327.62L245.935 327.372L246.236 327.284L246.413 327.025Z" fill="white" fill-opacity="0.5"/>
<path d="M65.5802 277.106L65.685 277.258L65.8628 277.311L65.7498 277.457L65.7549 277.642L65.5802 277.58L65.4055 277.642L65.4106 277.457L65.2975 277.311L65.4753 277.258L65.5802 277.106Z" fill="white" fill-opacity="0.5"/>
<path d="M604.161 124.799L604.361 125.091L604.7 125.19L604.484 125.47L604.494 125.823L604.161 125.705L603.827 125.823L603.837 125.47L603.622 125.19L603.961 125.091L604.161 124.799Z" fill="white" fill-opacity="0.5"/>
<path d="M474.151 269.465L474.388 269.809L474.789 269.928L474.534 270.259L474.546 270.676L474.151 270.536L473.757 270.676L473.769 270.259L473.514 269.928L473.915 269.809L474.151 269.465Z" fill="white" fill-opacity="0.4"/>
<path d="M235.15 313.781L235.314 314.02L235.592 314.102L235.415 314.332L235.423 314.621L235.15 314.524L234.877 314.621L234.885 314.332L234.708 314.102L234.986 314.02L235.15 313.781Z" fill="white" fill-opacity="0.3"/>
<path d="M498.983 251.127L499.16 251.384L499.459 251.472L499.269 251.719L499.278 252.031L498.983 251.927L498.689 252.031L498.698 251.719L498.507 251.472L498.807 251.384L498.983 251.127Z" fill="white" fill-opacity="0.4"/>
<path d="M305.524 110.027L305.853 110.507L306.413 110.672L306.057 111.133L306.073 111.715L305.524 111.52L304.974 111.715L304.99 111.133L304.635 110.672L305.194 110.507L305.524 110.027Z" fill="white" fill-opacity="0.3"/>
<path d="M79.552 87.1049L79.7257 87.3579L80.0204 87.4446L79.833 87.6877L79.8415 87.9942L79.552 87.8915L79.2626 87.9942L79.271 87.6877L79.0837 87.4446L79.3784 87.3579L79.552 87.1049Z" fill="white" fill-opacity="0.6"/>
<path d="M621.573 97.802L621.795 98.1259L622.172 98.237L621.933 98.5482L621.943 98.9408L621.573 98.8092L621.202 98.9408L621.213 98.5482L620.973 98.237L621.35 98.1259L621.573 97.802Z" fill="white" fill-opacity="0.4"/>
<path d="M211.077 255.712L211.389 256.166L211.918 256.321L211.582 256.758L211.597 257.308L211.077 257.124L210.558 257.308L210.573 256.758L210.236 256.321L210.766 256.166L211.077 255.712Z" fill="white" fill-opacity="0.5"/>
<path d="M438.337 217.508L438.54 217.802L438.883 217.904L438.665 218.187L438.675 218.544L438.337 218.424L438 218.544L438.01 218.187L437.792 217.904L438.135 217.802L438.337 217.508Z" fill="white" fill-opacity="0.6"/>
<path d="M441.898 0L442.097 0.289207L442.434 0.388344L442.219 0.666214L442.229 1.01669L441.898 0.899223L441.567 1.01669L441.577 0.666214L441.363 0.388344L441.7 0.289207L441.898 0Z" fill="white" fill-opacity="0.3"/>
<path d="M211.539 260.805L211.653 260.972L211.848 261.03L211.724 261.19L211.73 261.392L211.539 261.325L211.348 261.392L211.353 261.19L211.23 261.03L211.424 260.972L211.539 260.805Z" fill="white" fill-opacity="0.4"/>
<path d="M635.759 83.5392L635.945 83.8112L636.262 83.9045L636.061 84.1658L636.07 84.4955L635.759 84.385L635.447 84.4955L635.456 84.1658L635.255 83.9045L635.572 83.8112L635.759 83.5392Z" fill="white" fill-opacity="0.5"/>
<path d="M631.92 307.159L632.013 307.294L632.17 307.341L632.07 307.471L632.075 307.634L631.92 307.579L631.766 307.634L631.77 307.471L631.67 307.341L631.828 307.294L631.92 307.159Z" fill="white" fill-opacity="0.4"/>
<path d="M252.543 136.515L252.903 137.039L253.513 137.219L253.125 137.722L253.143 138.357L252.543 138.144L251.944 138.357L251.961 137.722L251.573 137.219L252.183 137.039L252.543 136.515Z" fill="white" fill-opacity="0.5"/>
<path d="M605.829 53.9949L606.078 54.3569L606.499 54.4809L606.231 54.8288L606.243 55.2675L605.829 55.1204L605.415 55.2675L605.427 54.8288L605.159 54.4809L605.581 54.3569L605.829 53.9949Z" fill="white" fill-opacity="0.6"/>
<path d="M640.23 233.808L640.375 234.018L640.62 234.09L640.464 234.292L640.471 234.547L640.23 234.461L639.99 234.547L639.997 234.292L639.841 234.09L640.086 234.018L640.23 233.808Z" fill="white" fill-opacity="0.3"/>
<path d="M18.4799 195.095L18.7091 195.429L19.0981 195.543L18.8508 195.864L18.862 196.268L18.4799 196.133L18.0979 196.268L18.109 195.864L17.8617 195.543L18.2507 195.429L18.4799 195.095Z" fill="white" fill-opacity="0.4"/>
<path d="M75.2082 141.609L75.4694 141.99L75.9127 142.12L75.6309 142.486L75.6436 142.947L75.2082 142.792L74.7728 142.947L74.7855 142.486L74.5036 142.12L74.9469 141.99L75.2082 141.609Z" fill="white" fill-opacity="0.6"/>
<path d="M684.087 19.866L684.222 20.0633L684.452 20.1309L684.306 20.3204L684.312 20.5595L684.087 20.4794L683.861 20.5595L683.868 20.3204L683.721 20.1309L683.951 20.0633L684.087 19.866Z" fill="white" fill-opacity="0.4"/>
<path d="M0.558112 326.007L0.765071 326.308L1.11622 326.411L0.892979 326.701L0.903044 327.067L0.558112 326.944L0.21318 327.067L0.223245 326.701L0 326.411L0.351153 326.308L0.558112 326.007Z" fill="white" fill-opacity="0.5"/>
<path d="M340.646 29.035L340.946 29.4716L341.454 29.6213L341.131 30.0408L341.146 30.57L340.646 30.3927L340.146 30.57L340.161 30.0408L339.838 29.6213L340.346 29.4716L340.646 29.035Z" fill="white" fill-opacity="0.6"/>
<path d="M673.324 62.6544L673.623 63.0896L674.13 63.2387L673.808 63.6569L673.822 64.1842L673.324 64.0075L672.826 64.1842L672.841 63.6569L672.519 63.2387L673.026 63.0896L673.324 62.6544Z" fill="white" fill-opacity="0.3"/>
<path d="M226.692 125.309L226.933 125.659L227.341 125.779L227.081 126.115L227.093 126.54L226.692 126.398L226.292 126.54L226.303 126.115L226.044 125.779L226.452 125.659L226.692 125.309Z" fill="white" fill-opacity="0.5"/>
<path d="M300.111 95.2551L300.331 95.5759L300.705 95.6859L300.467 95.9941L300.478 96.3829L300.111 96.2526L299.744 96.3829L299.755 95.9941L299.517 95.6859L299.891 95.5759L300.111 95.2551Z" fill="white" fill-opacity="0.3"/>
<path d="M620.715 253.165L620.995 253.572L621.47 253.712L621.168 254.104L621.181 254.597L620.715 254.432L620.249 254.597L620.262 254.104L619.961 253.712L620.435 253.572L620.715 253.165Z" fill="white" fill-opacity="0.6"/>
<path d="M288.937 86.5955L289.175 86.9426L289.579 87.0615L289.322 87.395L289.334 87.8155L288.937 87.6746L288.539 87.8155L288.551 87.395L288.294 87.0615L288.698 86.9426L288.937 86.5955Z" fill="white" fill-opacity="0.4"/>
<path d="M248.009 153.325L248.209 153.617L248.548 153.716L248.333 153.997L248.342 154.35L248.009 154.231L247.675 154.35L247.685 153.997L247.469 153.716L247.809 153.617L248.009 153.325Z" fill="white" fill-opacity="0.4"/>
<path d="M634.938 216.998L635.195 217.373L635.631 217.501L635.354 217.861L635.366 218.315L634.938 218.163L634.509 218.315L634.522 217.861L634.244 217.501L634.681 217.373L634.938 216.998Z" fill="white" fill-opacity="0.5"/>
<path d="M631.141 17.3191L631.499 17.8401L632.106 18.0187L631.72 18.5193L631.737 19.1507L631.141 18.9391L630.545 19.1507L630.562 18.5193L630.176 18.0187L630.783 17.8401L631.141 17.3191Z" fill="white" fill-opacity="0.5"/>
<path d="M583.494 327.025L583.784 327.447L584.275 327.592L583.963 327.997L583.977 328.507L583.494 328.336L583.012 328.507L583.026 327.997L582.714 327.592L583.205 327.447L583.494 327.025Z" fill="white" fill-opacity="0.4"/>
<path d="M213.246 150.778L213.603 151.298L214.208 151.476L213.823 151.975L213.84 152.605L213.246 152.394L212.651 152.605L212.669 151.975L212.284 151.476L212.889 151.298L213.246 150.778Z" fill="white" fill-opacity="0.4"/>
<path d="M217.219 14.2628L217.357 14.4644L217.592 14.5336L217.443 14.7273L217.45 14.9717L217.219 14.8898L216.988 14.9717L216.995 14.7273L216.846 14.5336L217.08 14.4644L217.219 14.2628Z" fill="white" fill-opacity="0.6"/>
<path d="M260.119 198.151L260.271 198.373L260.529 198.449L260.365 198.662L260.372 198.93L260.119 198.84L259.865 198.93L259.872 198.662L259.708 198.449L259.967 198.373L260.119 198.151Z" fill="white" fill-opacity="0.4"/>
<path d="M427.084 78.9548L427.276 79.2351L427.603 79.3312L427.395 79.6005L427.404 79.9403L427.084 79.8264L426.763 79.9403L426.772 79.6005L426.565 79.3312L426.891 79.2351L427.084 78.9548Z" fill="white" fill-opacity="0.4"/>
<path d="M241.232 12.7346L241.561 13.2146L242.12 13.3791L241.765 13.8402L241.781 14.4218L241.232 14.2269L240.683 14.4218L240.699 13.8402L240.343 13.3791L240.903 13.2146L241.232 12.7346Z" fill="white" fill-opacity="0.4"/>
<path d="M143.505 213.433L143.739 213.774L144.136 213.891L143.884 214.218L143.895 214.632L143.505 214.493L143.114 214.632L143.126 214.218L142.873 213.891L143.27 213.774L143.505 213.433Z" fill="white" fill-opacity="0.3"/>
<path d="M417.256 107.99L417.582 108.464L418.134 108.626L417.783 109.082L417.799 109.657L417.256 109.464L416.714 109.657L416.729 109.082L416.378 108.626L416.931 108.464L417.256 107.99Z" fill="white" fill-opacity="0.4"/>
<path d="M457.453 300.537L457.739 300.954L458.224 301.096L457.915 301.496L457.929 302.001L457.453 301.832L456.977 302.001L456.991 301.496L456.682 301.096L457.167 300.954L457.453 300.537Z" fill="white" fill-opacity="0.3"/>
<path d="M8.16487 49.9198L8.35527 50.1971L8.67833 50.2922L8.47295 50.5587L8.48221 50.8948L8.16487 50.7821L7.84754 50.8948L7.85679 50.5587L7.65141 50.2922L7.97447 50.1971L8.16487 49.9198Z" fill="white" fill-opacity="0.5"/>
<path d="M552.06 235.845L552.241 236.108L552.547 236.199L552.353 236.451L552.361 236.77L552.06 236.663L551.76 236.77L551.768 236.451L551.574 236.199L551.88 236.108L552.06 235.845Z" fill="white" fill-opacity="0.4"/>
<path d="M218.719 13.244L218.846 13.4298L219.063 13.4935L218.925 13.6721L218.931 13.8973L218.719 13.8218L218.506 13.8973L218.512 13.6721L218.375 13.4935L218.591 13.4298L218.719 13.244Z" fill="white" fill-opacity="0.5"/>
<path d="M352.496 1.01877L352.837 1.51436L353.414 1.68423L353.047 2.1604L353.063 2.76097L352.496 2.55968L351.929 2.76097L351.946 2.1604L351.579 1.68423L352.156 1.51436L352.496 1.01877Z" fill="white" fill-opacity="0.3"/>
<path d="M655.527 26.488L655.668 26.6926L655.906 26.7628L655.754 26.9594L655.761 27.2073L655.527 27.1242L655.293 27.2073L655.3 26.9594L655.148 26.7628L655.387 26.6926L655.527 26.488Z" fill="white" fill-opacity="0.4"/>
<path d="M517.385 292.897L517.573 293.17L517.892 293.264L517.689 293.527L517.698 293.859L517.385 293.748L517.071 293.859L517.081 293.527L516.878 293.264L517.197 293.17L517.385 292.897Z" fill="white" fill-opacity="0.4"/>
<path d="M318.428 292.897L318.63 293.191L318.973 293.292L318.755 293.574L318.764 293.931L318.428 293.811L318.091 293.931L318.101 293.574L317.883 293.292L318.226 293.191L318.428 292.897Z" fill="white" fill-opacity="0.5"/>
<path d="M382.472 230.242L382.587 230.41L382.782 230.467L382.658 230.628L382.664 230.83L382.472 230.762L382.281 230.83L382.286 230.628L382.162 230.467L382.357 230.41L382.472 230.242Z" fill="white" fill-opacity="0.5"/>
<path d="M712.261 322.441L712.436 322.695L712.732 322.782L712.543 323.027L712.552 323.335L712.261 323.231L711.97 323.335L711.979 323.027L711.79 322.782L712.087 322.695L712.261 322.441Z" fill="white" fill-opacity="0.5"/>
<path d="M130.593 249.09L130.772 249.351L131.077 249.44L130.883 249.691L130.892 250.008L130.593 249.902L130.294 250.008L130.303 249.691L130.109 249.44L130.414 249.351L130.593 249.09Z" fill="white" fill-opacity="0.5"/>
<path d="M401.614 179.304L401.821 179.606L402.173 179.709L401.95 180L401.96 180.366L401.614 180.243L401.268 180.366L401.278 180L401.054 179.709L401.406 179.606L401.614 179.304Z" fill="white" fill-opacity="0.5"/>
<path d="M123.34 129.893L123.66 130.36L124.204 130.52L123.859 130.969L123.874 131.535L123.34 131.345L122.805 131.535L122.821 130.969L122.475 130.52L123.019 130.36L123.34 129.893Z" fill="white" fill-opacity="0.6"/>
<path d="M104.542 238.392L104.891 238.901L105.484 239.076L105.107 239.565L105.124 240.181L104.542 239.975L103.96 240.181L103.977 239.565L103.6 239.076L104.193 238.901L104.542 238.392Z" fill="white" fill-opacity="0.5"/>
<path d="M340.28 204.773L340.451 205.022L340.74 205.107L340.556 205.346L340.565 205.647L340.28 205.546L339.996 205.647L340.004 205.346L339.82 205.107L340.109 205.022L340.28 204.773Z" fill="white" fill-opacity="0.5"/>
<path d="M499.897 137.025L500.216 137.489L500.757 137.648L500.413 138.095L500.429 138.657L499.897 138.469L499.366 138.657L499.381 138.095L499.037 137.648L499.578 137.489L499.897 137.025Z" fill="white" fill-opacity="0.3"/>
<path d="M267.79 304.613L268.129 305.106L268.703 305.275L268.338 305.748L268.355 306.346L267.79 306.146L267.226 306.346L267.243 305.748L266.878 305.275L267.452 305.106L267.79 304.613Z" fill="white" fill-opacity="0.5"/>
<path d="M215.265 166.569L215.615 167.078L216.207 167.252L215.831 167.741L215.848 168.358L215.265 168.151L214.683 168.358L214.7 167.741L214.324 167.252L214.916 167.078L215.265 166.569Z" fill="white" fill-opacity="0.4"/>
<path d="M352.545 136.006L352.902 136.526L353.509 136.705L353.123 137.205L353.14 137.836L352.545 137.624L351.949 137.836L351.967 137.205L351.581 136.705L352.188 136.526L352.545 136.006Z" fill="white" fill-opacity="0.5"/>
<path d="M9.63764 193.566L9.8076 193.814L10.096 193.899L9.91264 194.137L9.92091 194.437L9.63764 194.336L9.35438 194.437L9.36265 194.137L9.17932 193.899L9.46769 193.814L9.63764 193.566Z" fill="white" fill-opacity="0.5"/>
<path d="M604.393 235.845L604.495 235.994L604.668 236.045L604.558 236.188L604.563 236.368L604.393 236.307L604.223 236.368L604.228 236.188L604.118 236.045L604.291 235.994L604.393 235.845Z" fill="white" fill-opacity="0.5"/>
</svg>
